<?xml version="1.0" ?><!DOCTYPE svg  PUBLIC '-//W3C//DTD SVG 1.1//EN'  'http://www.w3.org/Graphics/SVG/1.1/DTD/svg11.dtd'><svg enable-background="new 0 0 283.44 283.44" height="283.44px" id="facebook_xA0_Image_1_" version="1.1" viewBox="0 0 283.44 283.44" width="283.44px" xml:space="preserve" xmlns="http://www.w3.org/2000/svg" xmlns:xlink="http://www.w3.org/1999/xlink"><g><path d="M236.568,208.052c0.246-1.051-0.143-1.755-0.785-2.454c-7.185-7.825-13.687-16.441-21.686-23.315   c-9.932-8.535-18.325-18.622-28.524-26.822c-3.661-2.943-6.906-6.407-10.605-9.297c-1.769-1.382-4.262-0.387-6.42-0.467   c-1.849-0.069-3.711,0.201-5.635,0.325c1.393,2.419,0.232,2.868-2.033,3.075c-3.911,0.358-7.821,0.91-11.67,1.683   c-2.601,0.522-4.746,0.767-5.788-2.338c-0.256-0.764-0.868-1.408-1.373-2.196c-16.3,2.945-32.733,4.471-49.232,6.529   c0.603,1.099,1.17,2.133,1.823,3.322c-1.286,1.828-3.458,1.583-5.221,1.968c-3.446,0.753-6.969,1.169-10.471,1.651   c-2.841,0.391-2.559-2.811-4.316-3.649c-6.06,0.939-11.867,3.485-17.782,3.969c12.605,22.706,31.503,40.714,47.429,61.568   c-2.737,0.819-4.058-0.353-5.4-1.212c-8.516-5.446-14.216-13.596-20.249-21.385c-4.97-6.417-10.351-12.492-14.998-19.192   c-4.187-6.037-7.48-12.388-9.722-19.319c-1.141-3.527,2.205-2.102,3.334-2.46c5.178-1.644,10.489-2.871,15.838-4.271   c-0.422-0.476-0.789-0.89-1.265-1.427c-5.016,1.117-10.106,2.211-15.176,3.391c-4.03,0.938-5.718-0.152-5.082-3.137   c-1.651-4.049-0.462-7.985-0.408-11.864c0.152-10.871,2.272-21.423,5.264-31.837c3.087-10.743,5.943-21.554,9.179-32.252   c0.956-3.161,2.62-6.188,4.415-8.985c1.047-1.632,3.081-2.297,5.332-1.196c9.522-2.036,19.42-2.635,29.224-3.92   c11.031-1.446,22.112-2.55,33.193-3.565c14.061-1.289,28.143-2.365,42.219-3.482c7.818-0.62,15.634-0.334,23.448,0.223   c2.52,0.18,3.066,1.163,2.32,3.576c-5.568,18.024-14.95,34.345-22.707,51.394c-4.206,9.246-7.778,18.78-11.652,28.222   c1.972,1.547,0.892,2.42-0.783,2.874c-3.024,0.819-6.147,0.861-9.43,0.797c0.166,0.454,0.293,0.799,0.485,1.325   c2.275-0.206,4.571-0.21,6.779-0.653c5.612-1.126,9.001,2.261,12.926,5.416c9.09,7.307,16.95,15.882,25.549,23.657   c6.537,5.911,13.019,11.898,19.219,18.122c4.439,4.456,8.159,9.634,12.862,13.934c2.526,2.31,1.518,5.36-1.682,6.974   c-8.963,4.52-18.78,4.627-28.432,5.793c-14.664,1.771-29.404,2.459-44.114,3.587c-11.889,0.911-23.775,1.879-35.676,2.606   c-7.15,0.437-14.324,0.477-21.489,0.658c-1.672,0.042-3.449,1.045-5.04-0.409c0.119-1.098,0.947-1.247,1.732-1.301   c7.376-0.512,14.728-1.19,22.141-1.392c9.624-0.262,19.218-1.537,28.83-2.301c8.506-0.677,17.011-1.477,25.533-1.815   c11.111-0.44,22.045-2.455,33.108-3.271c7.34-0.541,14.633-1.405,21.355-4.767C235.716,208.51,236.166,208.263,236.568,208.052z    M91.049,155.273c-1.047-2.246-1.983-4.178-2.833-6.148c-0.164-0.379-0.112-0.965,0.073-1.341c0.124-0.252,0.778-0.521,0.992-0.406   c2.035,1.095,3.995,0.053,5.926-0.234c7.507-1.119,15.022-2.24,22.473-3.671c6.497-1.248,13.09-1.1,19.621-1.79   c2.024-0.214,4.607-1.249,6.191,0.807c1.34,1.74,2.067,3.951,3.037,5.895c4.427-0.747,8.624-1.454,12.892-2.174   c-0.449-0.882-0.735-1.747-1.262-2.426c-1.806-2.331-1.124-3.431,1.654-3.629c2.774-0.198,5.547-0.403,8.875-0.646   c8.724-27.918,25.204-52.678,34.728-81.246c-43.757-1.076-86.376,6.89-130.086,9.581c-7.845,28.33-13.779,57.022-19.437,86.03   c3.781-0.901,7.095-1.72,10.423-2.475c4.147-0.941,8.548-3.365,11.669,1.973c0.82,1.403,1.824,2.699,2.629,3.877   C82.828,156.578,86.847,155.94,91.049,155.273z M135.83,144.982c-15.023-0.793-29.52,3.389-44.491,4.601   c0.212,0.368,0.376,0.654,0.527,0.917C106.583,148.653,121.207,146.818,135.83,144.982z"/><path d="M71.541,166.591c1.42-1.381,3.388-1.321,5.071-1.734c17.089-4.197,34.243-7.71,51.929-8.784   c15.795-0.959,31.545-2.796,47.38-3.356c0.929-0.033,2.35-0.326,2.31,1.135c-0.038,1.351-1.409,0.972-2.308,1.004   c-15.513,0.553-30.947,2.183-46.418,3.281c-12.927,0.918-25.704,2.598-38.423,4.862c-6.15,1.095-12.209,2.697-18.306,4.082   C72.34,167.18,71.925,167.391,71.541,166.591z"/><path d="M198.25,174.188c-35.385,4.685-70.73,9.365-106.431,14.092c2.877-0.9,5.457-1.818,8.095-2.515   c12.276-3.242,25.014-3.271,37.454-5.316c18.226-2.996,36.628-4.579,54.889-7.258c1.536-0.225,3.099-0.287,4.652-0.361   C197.748,172.789,198.413,173.059,198.25,174.188z"/><path d="M179.387,166.821c-0.328,0.292-0.629,0.797-0.949,0.81c-31.653,1.29-63.039,4.672-93.943,11.884   c-0.172,0.04-0.442-0.341-0.657-0.518C87.514,173.816,176.874,162.315,179.387,166.821z"/><path d="M100.714,198.854c21.092-3.424,42.052-6.101,63.238-7.096c14.367-0.675,28.723-1.578,43.536-2.404   c-1.16,2.502-2.852,2.36-4.263,2.401c-31.805,0.916-63.523,2.962-95.074,7.211c-1.972,0.266-3.911,0.791-5.854,1.244   C101.724,200.343,101.277,200.402,100.714,198.854z"/><path d="M132.319,208.531c3.792-1.343,7.648-1.883,11.566-2.296c10.784-1.138,21.346-4.088,32.287-3.975   c0.779,0.008,1.706-0.071,1.726,0.973c0.019,1.032-0.911,1.242-1.735,1.224c-11.818-0.261-23.285,2.733-34.963,3.766   c-2.49,0.22-4.951,0.77-7.424,1.17C133.2,209.486,132.65,209.537,132.319,208.531z"/><path d="M162.925,136.542c-35.439,0.528-70.485,4.004-105.022,11.92c-0.159,0.037-0.444-0.472-0.594-0.641   c0.121-1.078,0.985-0.984,2.079-1.612c4.495-25.292,11.619-50.423,15.582-76.464c1.067,0.482,1.423,0.643,0.689,0.312   c41.142-3.993,81.583-2.064,121.754-8.08c-3.279,7.944-5.86,15.062-9.109,21.862c-4.773,9.989-9.213,20.115-13.444,30.335   c-3.016,7.285-5.802,14.664-8.743,21.981c-0.481,1.197-1.065,2.644-2.774,2.244C162.251,138.141,162.524,137.223,162.925,136.542z    M76.639,71.224c-3.77,25.599-10.5,50.024-14.763,74.963c32.894-9.134,67.085-9.351,102.172-11.804   c9.051-22.891,20.179-46.079,30.318-69.399C155.355,69.909,115.924,68.696,76.639,71.224z"/><path d="M144.125,118.307c-1.566,4.855-12.969,9.873-18.378,7.245c-2.95-1.433-5.894-2.084-8.869-0.211   c-4.221,2.656-8.934,4.473-13.152,1.142c-4.74-3.743-4.632-9.526-3.719-15.04c1.527-9.228,6.566-15.922,15.144-19.695   c5.24-2.305,10.055-0.575,14.579,2.321c0.636,0.407,1.268,0.82,1.999,1.293c4.005-1.961,7.595-4.746,12.079-5.671   c5.162-1.065,9.759,0.701,11.098,4.332C144.818,98.839,137.66,104.872,144.125,118.307z M135.003,96.88   c-3.208,1.132-5.742,0.153-8.125-1.881c-3.317-2.83-7.112-3.707-11.086-1.659c-9.945,5.126-15.05,16.236-12.418,27.166   c0.607,2.52,1.788,4.833,5.126,5.235c2.436,0.293,4.604-0.206,6.567-1.234c3.86-2.022,7.693-1.914,11.566-0.446   c7.171,2.718,11.411-2.488,16.43-5.786c-7.637-7.542-2.68-20.375,9.194-24.121c-0.98-4.233-9.092-3.427-17.254,1.743   C135.003,96.159,135.003,96.455,135.003,96.88z"/><path d="M131.407,89.388c-0.499-0.208-1.007-0.42-1.513-0.638c4.672-8.585,9.832-10.22,16.027-10.585   c0.084,3.796-2.536,5.729-5.178,7.726C137.993,87.969,134.573,88.142,131.407,89.388z M144.373,79.331   c-5.096,1.299-9.385,2.734-11.479,7.75C137.736,85.98,141.835,84.278,144.373,79.331z"/></g></svg>